<!--?xml version="1.0" encoding="utf-8"?-->
<!-- Generator: Adobe Illustrator 15.0.0, SVG Export Plug-In . SVG Version: 6.00 Build 0)  -->

<svg xmlns="http://www.w3.org/2000/svg" viewBox="0 0 500 500" width="500px" height="500px">
<path id="path-0" style="left: 361.09px; top: 328.63px; position: relative; fill: rgb(110, 75, 143);" fill="#6e4b8f" transform="translate(0) scale(1)" d="M 438.676 291.534 c -9.666 0 -19.331 0 -28.997 0 c 9.288 -62.471 -93.294 -58.573 -80.988 4 c -47.995 0 -95.989 0 -143.982 0 c 10.745 -63.914 -90.928 -66.351 -81.99 -3 c -17.365 -6.11 -44.81 0.678 -53.993 -12.998 c -6.132 -9.134 -6 -33.308 -0.368 -45.506 c 0.206 -0.445 3.53 -0.301 3.368 0.512 c 52.78 2.946 61.581 -24.542 88.989 -38.995 c 22.083 -11.645 52.362 -19.916 86.989 -17.998 c 34.666 1.919 61.417 12.778 84.99 25.997 c 7.35 4.122 13.941 10.659 21.997 13.999 c 16.126 6.687 36.449 5.093 52.992 7.999 C 419.603 231.149 456.143 250.482 438.676 291.534 Z" />
<path id="path-1" style="left: 436.21px; top: 349.25px; position: relative;" fill="#ffffff" transform="translate(0) scale(1)" d="M 118.715 219.543 c 5.608 -0.36 34.715 1.195 34.715 1.195 s -0.306 -18.238 -0.306 -25.488 C 142.544 203.333 127.498 209.662 118.715 219.543 Z" />
<path id="path-2" style="position: relative;" fill="#ffffff" d="M 219.703 183.548 c -0.322 12.987 2.208 23.122 2 35.996 c -22.386 -0.056 -42.95 1.711 -65.992 1 c 0.146 -9.187 -0.583 -19.247 1 -26.997 C 173.663 186.422 197.475 179.209 219.703 183.548 Z" />
<path id="path-3" style="position: relative;" fill="#ffffff" d="M 230.701 183.548 c 40.828 2.167 76.283 15.038 93.988 36.996 c -29.996 0 -59.992 0 -89.989 0 C 233.34 208.239 231.72 196.194 230.701 183.548 Z" />
<path id="path-4" style="position: relative; fill: rgb(23, 19, 19);" fill="#171313" d="M 135.713 249.54 c 55.758 -11.188 59.875 73.372 8.999 73.991 C 101.292 324.059 92.024 258.307 135.713 249.54 Z" />
<path id="path-5" style="position: relative; fill: rgb(8, 8, 8);" fill="#080808" d="M 360.686 249.54 c 55.759 -11.188 59.875 73.372 8.998 73.991 C 326.264 324.059 316.996 258.307 360.686 249.54 Z" />
<path id="path-6" style="position: relative;" fill="#ffffff" d="M 138.713 262.538 c 19.117 -4.052 34.935 11.29 28.996 30.996 c -6.382 21.18 -40.563 21.34 -46.994 0 C 116.197 278.541 123.72 265.716 138.713 262.538 Z" />
<path id="path-7" style="position: relative; fill: rgb(255, 255, 255);" fill="#ffffff" d="M 363.685 262.538 c 19.117 -4.052 34.936 11.29 28.996 30.996 c -6.382 21.18 -40.563 21.34 -46.993 0 C 341.169 278.541 348.691 265.716 363.685 262.538 Z" />
</svg>
